<?xml version="1.0" encoding="utf-8"?>
<!-- Generator: Adobe Illustrator 21.0.0, SVG Export Plug-In . SVG Version: 6.00 Build 0)  -->
<svg version="1.1" id="Layer_1" xmlns="http://www.w3.org/2000/svg" xmlns:xlink="http://www.w3.org/1999/xlink" x="0px" y="0px"
	 viewBox="0 0 300 300" style="enable-background:new 0 0 300 300;" xml:space="preserve">
<style type="text/css">
	.st0{fill:#FFFFFF;}
</style>
<g>
	<path class="st0" d="M99,216.3c0,0-46.8-82.1,55.1-111.5V86.4l41.2,36.1L154,159.3v-21C154,138.3,94.1,135.3,99,216.3z"/>
</g>
<path class="st0" d="M263.1,32.7H142c-7,0-12.6,5.2-12.6,11.5v57.2c3.7-1.7,7.6-3.3,11.7-4.8V44.6c0.2-0.1,0.5-0.2,0.9-0.2h121.2
	c0.5,0,0.8,0.1,1,0.2v163.9c-0.2,0.1-0.5,0.2-1,0.2H142c-0.5,0-0.8-0.1-0.9-0.2v-56.4c-3.7,1.3-7.8,3.4-11.7,6.6v50.2
	c0,6.4,5.7,11.5,12.6,11.5h121.2c7,0,12.6-5.2,12.6-11.5V44.2C275.8,37.9,270.1,32.7,263.1,32.7z"/>
<g>
	<path class="st0" d="M40.6,252.6v-11.2H29.2v11.2c0,6.6,5.1,12.1,11.4,12.1h14.4v-11.3l-14.2,0.1C40.8,253.3,40.6,253.1,40.6,252.6
		z"/>
	<path class="st0" d="M122.4,137.7h15.4v-11.3h-2.6c-3.2,1.8-6.5,4.1-9.4,7.3C124.5,134.9,123.4,136.2,122.4,137.7z"/>
	<rect x="29.2" y="199.4" class="st0" width="11.3" height="26.4"/>
	<rect x="29.2" y="157.5" class="st0" width="11.3" height="26.4"/>
	<path class="st0" d="M93.9,126.4H65.2v11.3h20.7C88.2,133.9,90.3,130.5,93.9,126.4z"/>
	<path class="st0" d="M40.6,138.4c0-0.5,0.2-0.7,0.1-0.7h8.9v-11.3h-8.9c-6.3,0-11.4,5.4-11.4,12.1v8h11.3V138.4z"/>
	<rect x="205.3" y="214.5" class="st0" width="11.3" height="14.6"/>
	<path class="st0" d="M205.3,252.6c0,0.5-0.2,0.7-0.1,0.7h-8.9v11.3h8.9c6.3,0,11.4-5.4,11.4-12.1v-8h-11.3V252.6z"/>
	<rect x="70.6" y="253.3" class="st0" width="26.4" height="11.3"/>
	<rect x="112.5" y="253.3" class="st0" width="26.4" height="11.3"/>
	<rect x="154.5" y="253.3" class="st0" width="26.4" height="11.3"/>
</g>
</svg>
