<?xml version="1.0" encoding="utf-8"?>
<!-- Generator: Adobe Illustrator 21.0.0, SVG Export Plug-In . SVG Version: 6.00 Build 0)  -->
<svg version="1.1" id="Layer_1" xmlns="http://www.w3.org/2000/svg" xmlns:xlink="http://www.w3.org/1999/xlink" x="0px" y="0px"
	 viewBox="0 0 200 200" style="enable-background:new 0 0 200 200;" xml:space="preserve">
<style type="text/css">
	.st0{fill:#545970;}
	.st1{fill:#FFFFFF;}
</style>
<g>
	<path class="st0" d="M86.3,159.4c-0.8,0-1.6-0.6-1.8-1.3l-0.1-0.4c-0.1-0.4-0.2-0.7-0.3-1.1l-0.4-2.2c-0.7-3.7-1.4-7.4-2.1-11
		c-0.1-0.5-0.5-0.8-1.5-1.5c-0.6-0.3-1.1-0.7-1.7-1c-1.5-0.9-3.1-1.9-4.6-3.1c-1.4-1.2-2.7-3-3.4-5c-1.3-3.4-2.2-6.5-2.8-9.4
		c-0.4-2.1-0.4-4.3-0.3-6.3l0-0.9c0-1.1,0.2-2.1,0.4-3.1c0.1-0.5,0.2-1,0.2-1.6c0.3-2.2-0.1-4.1-1-5.9c-1.3-2.4-2.5-4.9-3.7-7.3
		c-0.6-1.2-1.1-2.3-1.7-3.5c-0.6-1.1-0.6-2.3-0.2-3.3c0.3-0.7,1-1.7,2.7-2.3c1.2-0.4,2.4-0.6,3.6-0.6c2.6,0,5,0.9,7.1,2.7
		c2.6,2.1,4.4,4.6,5.2,7.3c0.1-3.1,0.2-6.1,0.1-9.2c-0.1-9.6,0-19.6,0.1-30.8c0-2.5,0.6-5,1.1-7c0.5-2.4,2.2-3.9,4.5-4.1
		c0.2,0,0.4,0,0.7,0c2.4,0,4.2,1.1,5,3.1c0.9,2.1,1.5,4.2,1.7,6.1c0.8,6.4,1.6,12.9,2.3,19.2l0.4,3.6c1.8-0.9,3.5-1.6,5.6-1.6
		c0.7,0,1.4,0.1,2.1,0.2c3.8,0.8,5.4,3.5,6.4,6c1.7-0.7,3.4-1.3,5.4-1.3c0.9,0,1.7,0.1,2.5,0.4c3.4,1,5,3.6,6.1,5.9
		c0.7-0.1,1.4-0.2,2-0.3c0.5-0.1,1.1-0.1,1.6-0.1c3.3,0,5.8,1.5,7.6,4.6c1.9,3.1,2.9,6.7,3.4,11c0.9,9.1,0.1,17.8-2.2,25.7
		c-0.8,2.9-2,5.6-3.1,8.3c-0.4,0.9-0.8,1.9-1.1,2.8c-1.7,4.2-2.7,8.9-3.3,15.2l-0.1,1.3c-0.1,1-0.9,1.7-1.8,1.7L86.3,159.4z"/>
	<path class="st1" d="M86.7,49.4c1.5,0,2.7,0.5,3.3,1.9c0.7,1.8,1.3,3.7,1.6,5.7c1.1,8.2,2,16.5,3,24.7c0,0.2-0.1,0.5-0.1,1.1
		c2.5-1.6,4.7-3,7.3-3c0.5,0,1.1,0.1,1.7,0.2c3.7,0.8,4.7,3.7,5.7,6.7c2.1-1,4.2-2,6.4-1.9c0.7,0,1.3,0.1,2,0.3
		c3.1,0.9,4.4,3.7,5.5,6.2c1.2-0.1,2.3-0.3,3.4-0.4c0.4-0.1,0.9-0.1,1.3-0.1c2.6,0,4.6,1.2,6,3.7c1.9,3.2,2.8,6.6,3.1,10.2
		c0.8,8.5,0.3,16.8-2.1,25c-1.1,3.7-2.7,7.3-4.2,10.9c-2,5-2.9,10.3-3.4,15.7c0,0.4-0.1,0.8-0.1,1.4c-13.6,0-27.1,0-40.8,0
		c-0.1-0.4-0.3-0.9-0.4-1.3c-0.9-4.4-1.7-8.8-2.5-13.2c-0.3-1.4-1.2-2-2.3-2.7c-2-1.3-4.2-2.4-6-4c-1.3-1.1-2.3-2.7-2.9-4.2
		c-1.1-3-2.1-6-2.7-9.1c-0.4-2.2-0.3-4.5-0.2-6.8c0-1.5,0.4-3,0.6-4.5c0.3-2.4,0-4.7-1.2-7c-1.9-3.5-3.6-7.2-5.4-10.8
		c-0.7-1.4-0.2-2.5,1.4-3c1.1-0.3,2.1-0.5,3.1-0.5c2.1,0,4.1,0.8,6,2.2c2.8,2.3,4.7,5.1,5,8.9c0.5,5.7,1.1,11.5,1.7,17.2
		c0,0.5,0.1,1,0.3,1.5c0-0.2,0.1-0.5,0.1-0.7c0.6-10,1.3-20.1,1.3-30.2c-0.1-10.2,0-20.5,0.1-30.7c0-2.2,0.5-4.4,1-6.6
		c0.3-1.4,1.3-2.5,2.9-2.6C86.3,49.4,86.5,49.4,86.7,49.4 M86.7,45.7C86.7,45.7,86.7,45.7,86.7,45.7c-0.3,0-0.5,0-0.8,0
		c-3.1,0.3-5.5,2.4-6.2,5.5c-0.5,2.1-1.1,4.7-1.1,7.4c-0.2,11.2-0.2,21.2-0.1,30.8c0,0.9,0,1.7,0,2.6c-0.7-0.8-1.5-1.5-2.3-2.2
		c-2.5-2-5.3-3.1-8.3-3.1c-1.4,0-2.8,0.2-4.2,0.7c-1.8,0.6-3.2,1.8-3.9,3.3c-0.6,1.5-0.6,3.3,0.3,4.9c0.6,1.2,1.1,2.3,1.7,3.5
		c1.2,2.4,2.4,4.9,3.7,7.4c0.8,1.5,1,3,0.8,4.8c-0.1,0.5-0.1,1-0.2,1.5c-0.2,1-0.4,2.2-0.4,3.4l0,0.9c-0.1,2.1-0.1,4.4,0.3,6.8
		c0.6,3.1,1.6,6.2,2.9,9.7c0.8,2.2,2.3,4.3,3.9,5.7c1.5,1.3,3.2,2.3,4.8,3.3c0.6,0.3,1.1,0.7,1.6,1c0.1,0.1,0.5,0.3,0.7,0.4
		c0.7,3.7,1.4,7.4,2.1,11l0.4,2.1c0.1,0.5,0.2,0.9,0.3,1.3c0,0.1,0.1,0.2,0.1,0.3c0.4,1.6,1.9,2.7,3.5,2.7l20.1,0l20.7,0
		c0,0,0,0,0,0c1.9,0,3.5-1.5,3.7-3.4l0-0.5c0-0.3,0-0.6,0.1-0.8c0.5-6.1,1.5-10.6,3.1-14.7c0.4-0.9,0.7-1.8,1.1-2.8
		c1.1-2.7,2.3-5.5,3.1-8.5c2.4-8.2,3.1-17,2.2-26.4c-0.4-4.5-1.6-8.4-3.6-11.8c-2.7-4.5-6.5-5.5-9.2-5.5c-0.6,0-1.2,0-1.8,0.1
		c-0.2,0-0.5,0.1-0.7,0.1c-1.2-2.3-3.1-4.7-6.6-5.7c-1-0.3-2-0.4-3-0.4c-1.6,0-3,0.3-4.4,0.8c-1.2-2.4-3.2-4.6-7-5.5
		c-0.8-0.2-1.6-0.3-2.5-0.3c-1.5,0-2.8,0.3-4,0.7c0-0.4-0.1-0.8-0.1-1.1C96.8,69.5,96,63,95.2,56.6c-0.3-2.1-0.9-4.3-1.8-6.6
		C92.3,47.3,89.8,45.7,86.7,45.7L86.7,45.7z"/>
</g>
</svg>
